<?xml version="1.0" encoding="UTF-8" standalone="no"?>
<!-- Created with Inkscape (http://www.inkscape.org/) -->

<svg
   xmlns:dc="http://purl.org/dc/elements/1.1/"
   xmlns:cc="http://creativecommons.org/ns#"
   xmlns:rdf="http://www.w3.org/1999/02/22-rdf-syntax-ns#"
   xmlns:svg="http://www.w3.org/2000/svg"
   xmlns="http://www.w3.org/2000/svg"
   xmlns:sodipodi="http://sodipodi.sourceforge.net/DTD/sodipodi-0.dtd"
   xmlns:inkscape="http://www.inkscape.org/namespaces/inkscape"
   version="1.1"
   id="svg2"
   xml:space="preserve"
   width="192.66667"
   height="158.66667"
   viewBox="0 0 192.66667 158.66667"
   sodipodi:docname="logo.svg"
   inkscape:version="0.92.4 5da689c313, 2019-01-14"><metadata
     id="metadata8"><rdf:RDF><cc:Work
         rdf:about=""><dc:format>image/svg+xml</dc:format><dc:type
           rdf:resource="http://purl.org/dc/dcmitype/StillImage" /><dc:title></dc:title></cc:Work></rdf:RDF></metadata><defs
     id="defs6"><clipPath
       clipPathUnits="userSpaceOnUse"
       id="clipPath18"><path
         d="M 0,119 H 144.5 V 0 H 0 Z"
         id="path16"
         inkscape:connector-curvature="0" /></clipPath></defs><sodipodi:namedview
     pagecolor="#ffffff"
     bordercolor="#666666"
     borderopacity="1"
     objecttolerance="10"
     gridtolerance="10"
     guidetolerance="10"
     inkscape:pageopacity="0"
     inkscape:pageshadow="2"
     inkscape:window-width="854"
     inkscape:window-height="480"
     id="namedview4"
     showgrid="false"
     inkscape:zoom="1.4873949"
     inkscape:cx="96.333336"
     inkscape:cy="79.333336"
     inkscape:window-x="0"
     inkscape:window-y="312"
     inkscape:window-maximized="0"
     inkscape:current-layer="g10" /><g
     id="g10"
     inkscape:groupmode="layer"
     inkscape:label="LOGO"
     transform="matrix(1.3333333,0,0,-1.3333333,0,158.66667)"><g
       id="g12"><g
         id="g14"
         clip-path="url(#clipPath18)"><g
           id="g20"
           transform="translate(96.2354,99.2949)"><path
             d="m 0,0 c 0,0 -0.119,0.032 0,-0.366 0.12,-0.399 0.354,-0.58 0.24,-0.82 -0.111,-0.241 0.163,-0.636 0.163,-0.821 0,-0.185 -0.414,-0.796 -0.589,-0.949 -0.174,-0.153 -0.094,-0.714 -0.094,-0.918 0,-0.204 0.143,-0.153 0.333,0 0.187,0.153 0.236,0.306 0.482,0.51 0.247,0.204 0.729,0.459 1.088,0.663 0.361,0.203 0.481,0.509 0.541,0.815 0.062,0.306 0.132,0.816 0.132,0.816"
             style="fill:none;stroke:#294099;stroke-width:0.40000001;stroke-linecap:butt;stroke-linejoin:miter;stroke-miterlimit:4;stroke-dasharray:none;stroke-opacity:1"
             id="path22"
             inkscape:connector-curvature="0" /></g><g
           id="g24"
           transform="translate(95.0938,100.0161)"><path
             d="m 0,0 c 0,0 0.18,-0.023 0,-0.588 -0.18,-0.565 0.043,-0.915 0.043,-1.306 0,-0.39 0.17,-0.721 -0.038,-1.412 -0.208,-0.691 -0.208,-1.262 -0.208,-1.924 0,-0.661 -0.026,-1.142 0.444,-1.202 0.469,-0.06 1.066,-0.009 1.562,0.421 0.497,0.43 0.791,0.811 0.962,0.962 0.172,0.15 0.782,0.36 0.962,0.751 0.18,0.391 0,0.774 0.12,1.213 0.12,0.44 0.3,0.59 0.3,0.59"
             style="fill:none;stroke:#294099;stroke-width:0.40000001;stroke-linecap:butt;stroke-linejoin:miter;stroke-miterlimit:4;stroke-dasharray:none;stroke-opacity:1"
             id="path26"
             inkscape:connector-curvature="0" /></g><g
           id="g28"
           transform="translate(91.8379,101.8223)"><path
             d="M 0,0 C 0,0 1.039,-0.953 1.328,-1.672 1.617,-2.392 1.68,-3.17 1.446,-3.547 1.214,-3.924 0.433,-4.81 0.404,-5.2 0.376,-5.591 0.595,-6.433 1.155,-7.154 c 0.562,-0.722 0.979,-0.962 0.979,-1.383 0,-0.421 -0.517,-1.022 -0.517,-1.323 0,-0.3 0.109,-0.962 0.517,-1.052 0.409,-0.09 1.334,-0.03 1.912,0.391 0.577,0.421 0.808,0.89 1.155,0.89 0.348,0 0.61,0.192 0.824,0.312 0.216,0.121 0.738,0.451 1.027,0.481 0.289,0.03 1.307,0.115 1.444,0.448 0.137,0.334 0.137,1.116 0.137,1.536 0,0.421 0.037,0.662 0.326,0.782 0.288,0.12 0.751,-0.49 0.953,-0.902 0.202,-0.411 1.127,-1.803 1.445,-2.134 0.318,-0.331 0.579,-0.902 0.722,-1.203 0.146,-0.3 1.388,-1.172 1.503,-1.713 0.115,-0.541 -0.239,-1.022 -0.058,-1.293 0.182,-0.27 0.209,-0.631 0.209,-1.052 0,-0.42 -0.325,-0.781 -0.266,-1.142 l 0.057,-0.361 c 0,0 0.058,-0.841 0,-1.382 -0.057,-0.541 -0.172,-1.744 0.173,-2.105 0.348,-0.36 1.041,-0.721 1.33,-0.24 0.289,0.481 0.405,0.962 0.81,1.142 0.404,0.181 1.04,0.662 1.328,1.203 0.289,0.541 0.867,1.443 0.867,2.044 0,0.601 0,0.781 -0.289,1.322 -0.289,0.541 -0.605,0.842 -0.751,1.203 -0.143,0.36 -0.23,0.481 -0.23,0.481"
             style="fill:none;stroke:#294099;stroke-width:0.40000001;stroke-linecap:butt;stroke-linejoin:miter;stroke-miterlimit:4;stroke-dasharray:none;stroke-opacity:1"
             id="path30"
             inkscape:connector-curvature="0" /></g><g
           id="g32"
           transform="translate(105.0664,93.8765)"><path
             d="m 0,0 c 0,0 0.563,-0.727 0.563,-1.062 0,-0.336 0.087,-1.062 0.261,-1.342 0.173,-0.28 0.716,-1.789 0.694,-2.348 -0.022,-0.559 -0.13,-1.146 -0.174,-1.398 -0.043,-0.251 -0.269,-2.963 0,-3.298 0.27,-0.336 0.521,-0.401 0.694,-0.089 0.174,0.312 0.347,0.927 0.391,1.179 0.043,0.251 0.52,1.034 0.607,1.258 0.086,0.223 0.171,1.342 0.085,1.565 -0.085,0.224 -0.433,1.09 -0.866,1.51 -0.435,0.419 -0.545,0.838 -0.663,1.23 -0.117,0.391 0,0.939 0,0.939"
             style="fill:none;stroke:#294099;stroke-width:0.40000001;stroke-linecap:butt;stroke-linejoin:miter;stroke-miterlimit:4;stroke-dasharray:none;stroke-opacity:1"
             id="path34"
             inkscape:connector-curvature="0" /></g><g
           id="g36"
           transform="translate(113.9043,83.3394)"><path
             d="M 0,0 C 0,0 0.161,-1.127 -0.065,-1.395 -0.29,-1.664 -0.679,-2.33 -0.667,-2.721 -0.663,-2.862 -0.71,-3.177 -0.792,-3.542"
             style="fill:none;stroke:#294099;stroke-width:0.40000001;stroke-linecap:butt;stroke-linejoin:miter;stroke-miterlimit:4;stroke-dasharray:none;stroke-opacity:1"
             id="path38"
             inkscape:connector-curvature="0" /></g><g
           id="g40"
           transform="translate(77.9014,105.1768)"><path
             d="M 0,0 C 0,0 1.172,-1.468 1.684,-2.028 2.194,-2.589 3.276,-3.663 2.795,-4.474 2.314,-5.285 1.37,-5.995 0.631,-6.726 c -0.738,-0.73 -1.052,-1.121 -0.962,-1.868 0.091,-0.747 0.723,-1.895 1.082,-2.322 0.361,-0.427 0.662,-0.876 1.144,-0.625 0.479,0.251 0.708,1.149 0.93,1.995 0.223,0.845 0.661,1.964 1.113,2.09 0.451,0.126 1.744,0.265 2.164,0.624 0.42,0.358 0.872,0.374 0.752,1.001 -0.121,0.627 -0.843,1.774 -1.172,2.628 -0.331,0.854 -0.783,1.335 -0.783,1.735 0,0.4 0.031,0.721 0.031,0.721"
             style="fill:none;stroke:#294099;stroke-width:0.40000001;stroke-linecap:butt;stroke-linejoin:miter;stroke-miterlimit:4;stroke-dasharray:none;stroke-opacity:1"
             id="path42"
             inkscape:connector-curvature="0" /></g><g
           id="g44"
           transform="translate(73.1826,105.4868)"><path
             d="M 0,0 C 0,0 0.605,-0.606 0.636,-1.211 0.665,-1.817 0.417,-2.949 0.769,-3.594 1.119,-4.239 2.691,-5.004 2.752,-5.379 2.813,-5.753 2.713,-6.705 2.884,-7.176 3.054,-7.647 3.416,-7.903 3.326,-8.418 3.235,-8.933 2.902,-9.266 3.114,-9.69 c 0.212,-0.423 0.121,-0.999 -0.06,-1.271 -0.182,-0.273 -0.847,-1.104 -0.514,-1.878 0.332,-0.773 1.306,-1.756 1.726,-1.968 0.421,-0.212 0.905,-0.363 1.267,-0.848 0.363,-0.484 1.18,-0.878 1.451,-0.242 0.273,0.636 1.045,2.422 1.045,2.937 0,0.515 0.649,1.968 1.072,2.18 0.422,0.212 0.934,0.415 1.813,0.031 0.88,-0.384 1.513,-0.545 1.995,0.06 0.485,0.606 1.119,1.585 1.301,2.071 0.182,0.485 0.906,1.048 1.118,1.199 0.211,0.152 0.394,0.727 0.907,0.969 0.514,0.243 1.119,0.243 1.209,0.182 0.091,-0.06 -0.453,-0.666 -0.665,-1.181 -0.212,-0.515 -0.756,-1.696 -0.15,-2.422 0.603,-0.727 0.965,-0.727 1.148,-0.788 0.185,-0.06 0.327,-0.132 0.185,-0.474 -0.144,-0.343 -0.489,-0.767 -0.245,-1.342 0.245,-0.576 0.834,-1.03 0.635,-1.363 -0.2,-0.333 -1.421,-1.595 -1.542,-2.059 -0.122,-0.464 0.09,-1.332 0,-1.726 -0.09,-0.394 -0.332,-0.696 0,-0.727 0.333,-0.03 1.127,0.091 1.42,-0.272 0.295,-0.363 0.635,-0.424 1.209,-0.303 0.576,0.121 2.662,0.666 3.115,1.211 0.454,0.545 1.513,1.242 1.8,1.333 0.286,0.09 1.888,0.333 2.191,0.393 0.302,0.061 0.936,0.666 1.118,1.06 0.182,0.394 0.394,0.727 0.816,0.696 0.423,-0.03 1.723,-0.454 1.753,-1.029 0.032,-0.575 0.303,-1.514 0.455,-1.999 0.151,-0.484 -0.135,-1.574 0.126,-2.028 0.262,-0.454 0.694,-1.393 0.478,-1.817 -0.216,-0.424 -0.726,-0.927 -0.726,-1.266 0,-0.339 0.357,-0.679 0.51,-1.433 0.155,-0.753 0.186,-1.207 0.519,-1.48 0.124,-0.101 0.293,-0.315 0.488,-0.535"
             style="fill:none;stroke:#294099;stroke-width:0.80000001;stroke-linecap:butt;stroke-linejoin:miter;stroke-miterlimit:4;stroke-dasharray:none;stroke-opacity:1"
             id="path46"
             inkscape:connector-curvature="0" /></g><g
           id="g48"
           transform="translate(69.7266,105.71)"><path
             d="M 0,0 C 0,0 0.21,-0.68 0.479,-1.113 0.749,-1.546 0.821,-2.473 0.59,-3.4 0.359,-4.328 0.367,-4.751 0.367,-5.491 c 0,-0.74 -0.457,-1.681 0.172,-2.083 0.629,-0.402 1.737,-0.904 1.857,-1.225 0.119,-0.32 0.029,-0.336 -0.24,-0.576 -0.27,-0.239 -1.527,-1.392 -1.497,-1.692 0.03,-0.299 0.568,-0.708 0.568,-1.02 0,-0.312 -0.359,-1.28 -0.419,-1.589 -0.059,-0.309 0.09,-1.286 -0.03,-1.564 -0.119,-0.278 -0.509,-1.02 -0.449,-1.422 0.06,-0.402 1.283,-1.793 1.767,-1.948 0.483,-0.154 1.407,0.124 1.796,0.619 0.39,0.494 0.719,0.834 0.989,0.865 0.269,0.031 1.224,0.093 2.006,-0.124 0.781,-0.216 1.377,-0.123 1.676,-0.123 0.3,0 0.809,-0.248 1.108,-0.557 0.3,-0.309 0.629,-0.432 1.318,-0.216 0.688,0.216 1.137,0.309 1.617,0.247 0.479,-0.062 1.586,0.309 1.946,0.649 0.359,0.34 1.018,1.082 1.317,1.546 0.3,0.464 1.138,0.742 1.467,1.02 0.33,0.278 0.869,1.008 1.318,1.008 0.45,0 0.599,-0.049 0.658,-0.637 0.06,-0.587 -0.479,-1.669 -0.688,-2.195 -0.21,-0.525 -0.809,-2.256 -0.449,-2.967 0.359,-0.711 0.329,-1.144 0.329,-1.268 0,-0.123 0.124,-0.371 0.945,-0.185 0.822,0.185 1.396,0.371 1.782,0.216 0.387,-0.154 0.791,-0.556 1.233,-0.093 0.442,0.464 1.066,0.681 1.066,0.681 0,0 1.741,0.803 2.28,1.174 0.539,0.371 0.771,0.649 1.087,0.495 0.315,-0.155 1.278,-0.68 1.727,-0.618 0.45,0.061 1.22,0.834 1.639,0.525 0.42,-0.309 0.876,-0.976 0.817,-1.793 -0.059,-0.816 0.03,-1.144 0.509,-1.36 0.479,-0.216 0.778,-0.359 0.838,-1.138 0.06,-0.779 0.09,-1.49 -0.359,-1.675 -0.449,-0.186 -0.839,-0.217 -0.779,-0.68 0.029,-0.223 0.147,-0.516 0.316,-0.802"
             style="fill:none;stroke:#294099;stroke-width:0.40000001;stroke-linecap:butt;stroke-linejoin:miter;stroke-miterlimit:4;stroke-dasharray:none;stroke-opacity:1"
             id="path50"
             inkscape:connector-curvature="0" /></g><g
           id="g52"
           transform="translate(68.374,105.4863)"><path
             d="m 0,0 c 0,0 0.601,-0.781 0.601,-1.202 0,-0.421 -0.706,-2.134 -0.706,-2.495 0,-0.361 0.285,-2.044 0.195,-2.735 -0.09,-0.691 -0.661,-2.224 -0.932,-2.585 -0.27,-0.36 -0.541,-1.052 -0.511,-1.533 0.031,-0.481 0.75,-0.841 0.976,-1.022 0.227,-0.18 0.888,-0.945 0.888,-1.442 0,-0.497 0.301,-2.555 0.03,-3.366 -0.27,-0.812 -0.03,-1.113 -0.03,-1.443 0,-0.331 -0.861,-2.164 -0.861,-2.555 0,-0.391 0.225,-0.872 0.681,-0.331 0.455,0.541 0.721,1.113 1.172,1.263 0.451,0.15 1.623,0.511 2.044,0.21 0.42,-0.3 0.6,-0.511 0.991,-0.18 0.391,0.331 1.233,1.052 1.684,1.202 0.45,0.15 1.562,0.06 2.043,-0.18 0.481,-0.241 0.932,-0.09 1.082,-0.09 0.151,0 0.571,-0.181 1.022,-0.391 0.451,-0.21 0.692,-0.15 0.992,-0.06 0.301,0.09 0.937,0 1.43,0 0.494,0 1.696,0 2.237,0.21 0.541,0.211 1.292,0.331 1.773,-0.09 0.481,-0.421 0.601,-0.978 0.541,-1.623 -0.06,-0.645 0.03,-1.052 0.481,-1.172 0.45,-0.12 0.631,-0.331 0.872,-0.571 0.24,-0.241 0.391,-0.548 0.901,-0.094 0.51,0.454 0.752,0.875 0.992,0.575 0.241,-0.301 0.09,-0.623 0.692,-0.782 0.601,-0.159 1.021,-0.139 1.742,0.276 0.722,0.415 1.233,0.566 1.503,0.566 0.271,0 0.022,-0.241 0.447,0.15 0.424,0.391 0.965,0.631 1.537,0.541 0.571,-0.09 0.846,-0.361 1.503,-0.361 0.656,0 1.533,0.391 2.044,-0.12 0.51,-0.511 0.962,-0.631 0.661,-1.803 -0.3,-1.172 -0.511,-2.284 -0.661,-2.795"
             style="fill:none;stroke:#294099;stroke-width:0.40000001;stroke-linecap:butt;stroke-linejoin:miter;stroke-miterlimit:4;stroke-dasharray:none;stroke-opacity:1"
             id="path54"
             inkscape:connector-curvature="0" /></g><g
           id="g56"
           transform="translate(61.7314,104.5244)"><path
             d="m 0,0 c 0,0 0.271,-0.661 0.481,-0.902 0.21,-0.24 0.811,-0.661 0.902,-1.052 0.09,-0.39 0.641,-1.472 1.292,-1.683 0.65,-0.21 1.533,-0.421 1.623,-0.962 0.09,-0.541 -0.41,-2.795 -0.691,-3.246 -0.282,-0.45 -1.022,-2.284 -0.722,-2.795 0.301,-0.511 0.842,-1.022 1.556,-1.172 0.714,-0.15 1.54,-0.379 1.54,-0.601 0,-0.223 0,-1.032 -0.27,-1.658 -0.271,-0.626 -0.331,-1.438 -0.331,-1.648 0,-0.211 -0.361,-1.473 -0.571,-1.864 -0.21,-0.39 -0.18,-0.721 -0.06,-0.931 0.12,-0.211 0.09,-0.602 -0.12,-0.782 -0.211,-0.18 -0.692,-0.481 -0.692,-0.781 0,-0.301 0.105,-0.872 0.662,-1.112 0.556,-0.241 1.052,-0.692 1.713,-0.571 0.661,0.12 1.028,0.45 1.292,0.691 0.265,0.24 0.842,0.721 1.533,0.841 0.691,0.121 1.413,-0.03 1.863,-0.09 0.451,-0.06 0.902,0.12 1.293,0.451 0.391,0.331 0.721,0.541 1.142,0.631 0.421,0.09 0.781,0.271 1.353,0.06 0.571,-0.21 0.721,-0.451 1.172,-0.451 0.451,0 1.172,0.211 1.352,0.271 0.181,0.06 0.391,0.18 0.782,0.03 0.39,-0.15 0.811,-0.09 1.142,-0.15 0.33,-0.06 0.691,0 0.601,-0.301 -0.09,-0.3 -0.631,-0.541 -1.082,-0.601 -0.451,-0.06 -1.834,-0.27 -2.284,-0.3 -0.45,-0.031 -1.383,0.09 -1.653,-0.061 -0.271,-0.15 -0.662,-0.556 -0.842,-0.871 -0.18,-0.316 -0.271,-0.691 0,-0.752 0.271,-0.06 0.511,-0.037 0.361,-0.304 -0.15,-0.267 -0.812,-0.327 -0.902,-0.537 -0.09,-0.211 -0.09,-0.451 0.24,-0.481 0.331,-0.03 2.435,0.132 2.887,0 0.45,-0.132 0.66,-0.241 0.78,-0.451 0.12,-0.21 0.211,-0.24 0.541,-0.331 0.331,-0.09 1.215,-0.268 1.383,-0.631 0.167,-0.363 0.293,-0.305 0.717,-0.18 0.425,0.125 1.267,0.481 1.477,0.601 0.21,0.12 0.721,0.451 0.721,0.451 0,0 0.301,0.06 0.571,-0.15 0.271,-0.211 0.571,-0.511 1.022,-0.601 0.451,-0.091 0.812,-0.091 1.263,0.09 0.45,0.18 0.871,0.541 1.082,0.691 0.21,0.15 0.541,0.661 0.991,0.842 0.452,0.18 0.782,0.3 1.052,0.24 0.271,-0.06 0.817,-0.15 1.145,-0.09 0.328,0.06 0.992,0.293 1.239,0.537 0.248,0.244 0.777,0.74 0.923,0.74 0.145,0 0.631,0.316 0.901,0.316 0.271,0 0.902,0.03 1.323,0.03 0.42,0 0.546,0.391 1.082,0.12 0.537,-0.27 0.852,-0.12 0.537,-0.601 -0.318,-0.481 -1.259,-1.803 -1.409,-2.074 -0.108,-0.195 -0.465,-0.657 -0.747,-1"
             style="fill:none;stroke:#294099;stroke-width:0.40000001;stroke-linecap:butt;stroke-linejoin:miter;stroke-miterlimit:4;stroke-dasharray:none;stroke-opacity:1"
             id="path58"
             inkscape:connector-curvature="0" /></g><g
           id="g60"
           transform="translate(50.2202,100.4971)"><path
             d="m 0,0 c 0,0 0.989,-0.721 1.773,-0.842 0.785,-0.12 1.563,-0.131 2.014,-0.131 0.451,0 1.232,-0.035 1.533,-0.132 0.3,-0.097 0.932,-0.308 1.112,-0.368 0.18,-0.06 0.691,-0.601 1.022,-0.721 0.33,-0.12 0.541,0.021 0.811,-0.125 0.271,-0.146 0.391,-0.446 0.872,-0.356 0.481,0.09 0.691,0.03 1.052,0.21 0.361,0.181 0.661,0.361 1.052,0.241 0.391,-0.12 0.631,-0.268 0.481,-0.6 -0.15,-0.332 -0.185,-0.723 -0.333,-1.143 C 11.241,-4.388 11.361,-4.749 11.031,-4.989 10.7,-5.23 9.858,-5.801 9.438,-5.921 9.017,-6.041 7.664,-7.243 7.574,-7.664 c -0.09,-0.421 -0.15,-0.812 0.361,-1.293 0.511,-0.481 0.871,-0.761 1.082,-1.086 0.21,-0.326 0.541,-0.144 0.901,-0.072 0.361,0.072 0.572,0.257 1.113,0.407 0.541,0.15 1.292,0.27 1.472,-0.09 0.181,-0.361 0.511,-0.541 0.481,-1.112 -0.03,-0.571 -0.03,-1.353 -0.09,-1.864 -0.06,-0.511 0,-0.841 0.03,-1.112 0.03,-0.27 -0.09,-0.811 -0.301,-1.202 -0.21,-0.391 -0.571,-1.232 -0.631,-1.473 -0.06,-0.24 -0.117,-0.947 -0.36,-1.142 -0.243,-0.195 -0.932,-0.451 -1.173,-0.601 -0.24,-0.15 -0.541,-0.301 -0.3,-0.511 0.24,-0.21 0.927,-0.1 1.23,-0.1 0.303,0 0.663,0.269 1.084,-0.161 0.421,-0.43 0.842,-0.611 1.804,-0.46 0.961,0.15 1.517,0.18 1.953,0.15 0.436,-0.03 0.782,-0.09 1.052,0.12 0.271,0.211 1.389,0.301 1.743,0.12 0.355,-0.18 0.752,-0.209 0.632,-0.66 -0.121,-0.452 -0.662,-1.444 -0.872,-1.744 -0.147,-0.21 -0.398,-0.583 -0.535,-0.901"
             style="fill:none;stroke:#294099;stroke-width:0.80000001;stroke-linecap:butt;stroke-linejoin:miter;stroke-miterlimit:4;stroke-dasharray:none;stroke-opacity:1"
             id="path62"
             inkscape:connector-curvature="0" /></g><g
           id="g64"
           transform="translate(41.2334,94.8765)"><path
             d="m 0,0 c 0,0 -0.12,0.09 0,-0.27 0.12,-0.361 0.331,-0.271 0.541,-0.481 0.21,-0.211 0.301,-0.391 0.301,-0.752 0,-0.36 0.511,-1.142 1.082,-1.683 0.571,-0.541 1.253,-1.172 1.253,-1.443 0,-0.27 0.79,-0.751 1.181,-0.691 0.391,0.06 1.954,0.992 2.405,1.293 0.45,0.3 1.857,0.36 2.146,0.541 0.288,0.18 0.679,0.3 1.1,0.15 0.42,-0.15 0.991,-0.296 1.352,-0.691 0.361,-0.396 0.661,-0.734 0.962,-1.082 0.3,-0.349 0.511,-0.391 0.661,-0.061 0.15,0.331 0.331,0.962 0.331,1.443 0,0.481 0.21,1.034 0.451,1.034 0.24,0 0.571,0.048 0.631,-0.222 0.06,-0.271 0.09,-0.912 0.421,-1.508 0.33,-0.596 0.541,-1.017 0.661,-1.498 0.12,-0.481 -0.211,-1.322 -0.511,-1.653 -0.301,-0.331 -0.669,-1.022 0,-1.413 0.669,-0.39 1.232,-0.24 1.623,-0.24 0.391,0 0.751,-0.03 0.932,-0.331 0.18,-0.3 0.367,-0.451 0.24,-0.781 -0.127,-0.331 -1.022,-1.142 -1.713,-1.473 -0.691,-0.331 -1.683,-0.751 -2.104,-1.112 -0.421,-0.361 -0.842,-0.601 -1.232,-0.691 -0.391,-0.09 -1.954,-0.601 -2.164,-0.812 -0.211,-0.21 -0.782,-0.33 -0.511,-0.751 0.27,-0.421 0.691,-0.571 1.202,-0.692 0.511,-0.12 0.601,-0.288 1.382,-0.129 0.782,0.16 1.623,0.52 2.014,0.701 0.391,0.18 0.842,0.18 1.142,0.15 0.301,-0.03 1.443,0.18 1.894,0.18 0.451,0 2.046,0.18 2.374,0 0.328,-0.18 0.511,-0.541 0.992,-0.601 0.481,-0.06 1.894,-0.03 2.224,-0.24 0.238,-0.152 1.152,-0.475 1.383,-1.014"
             style="fill:none;stroke:#294099;stroke-width:0.40000001;stroke-linecap:butt;stroke-linejoin:miter;stroke-miterlimit:4;stroke-dasharray:none;stroke-opacity:1"
             id="path66"
             inkscape:connector-curvature="0" /></g><g
           id="g68"
           transform="translate(100.9893,39.1704)"><path
             d="m 0,0 c 0,0 -0.12,0.18 -0.03,0.511 0.09,0.331 0.451,0.721 0.691,0.811 0.241,0.091 0.481,0.125 0.962,0.125 0.481,0 1.443,-0.032 1.623,0.132 0.18,0.164 0.721,0.765 0.872,0.825 0.15,0.061 0.871,0.722 1.142,0.722 0.27,0 1.202,-0.036 1.503,0.132 C 7.063,3.426 7.012,3.186 6.827,2.915 6.642,2.645 6.011,2.194 5.891,1.894 5.771,1.593 5.26,1.262 5.079,1.082 4.899,0.902 4.448,0.093 4.418,-0.073 4.388,-0.24 4.057,-1.022 3.757,-1.202 3.457,-1.383 2.915,-1.623 2.495,-1.533 2.074,-1.443 0.571,-0.631 0.511,-0.541 0.451,-0.451 0,0 0,0 Z"
             style="fill:none;stroke:#294099;stroke-width:0.40000001;stroke-linecap:butt;stroke-linejoin:miter;stroke-miterlimit:4;stroke-dasharray:none;stroke-opacity:1"
             id="path70"
             inkscape:connector-curvature="0" /></g><g
           id="g72"
           transform="translate(36.3643,90.4536)"><path
             d="m 0,0 v -0.506 c 0,-0.241 -0.03,-0.782 0.421,-1.082 0.451,-0.301 1.112,-0.721 1.442,-0.541 0.331,0.18 1.623,0.721 2.285,0.751 0.661,0.03 1.983,0.12 2.374,-0.18 0.391,-0.301 1.181,-1.022 1.353,-1.052 0.171,-0.03 0.541,-0.391 0.691,-0.691 0.15,-0.301 0.962,-0.902 1.352,-0.902 0.391,0 2.104,0.451 2.405,0.601 0.3,0.15 0.902,0.06 1.022,-0.03 0.12,-0.09 1.082,-0.481 1.082,-0.481 0,0 0.751,0.211 0.992,0.361 0.24,0.15 1.082,0.451 1.472,0.451 0.391,0 0.421,-0.108 0.421,-0.571 0,-0.464 -0.06,-0.571 0.211,-0.692 0.27,-0.12 0.45,-0.12 0.45,-0.27 0,-0.15 -0.601,-0.271 -0.691,-0.511 -0.09,-0.241 0.198,-0.571 0.511,-0.661 0.313,-0.091 0.721,-0.06 0.631,-0.361 -0.09,-0.301 -0.995,-1.232 -1.503,-1.292 -0.508,-0.061 -0.931,-0.572 -1.082,-0.812 -0.15,-0.24 -0.39,-0.421 -0.721,-0.571 -0.33,-0.15 -0.998,-0.87 -1.34,-0.721 -0.343,0.15 -0.614,0.03 -0.824,-0.331 -0.21,-0.361 -0.481,-0.872 -0.631,-0.872 -0.15,0 -0.631,-0.24 -0.661,-0.45 -0.02,-0.14 0,-1.049 0.174,-1.644"
             style="fill:none;stroke:#294099;stroke-width:0.40000001;stroke-linecap:butt;stroke-linejoin:miter;stroke-miterlimit:4;stroke-dasharray:none;stroke-opacity:1"
             id="path74"
             inkscape:connector-curvature="0" /></g><g
           id="g76"
           transform="translate(31.7656,84.8081)"><path
             d="m 0,0 c 0,0 0.271,-0.511 0.331,-0.781 0.06,-0.271 1.262,-0.872 1.653,-0.992 0.39,-0.121 0.781,-0.121 1.322,0.12 0.541,0.24 0.576,0.06 1.16,0.3 0.583,0.241 1.185,0.602 1.305,0.211 0.12,-0.391 0.18,-0.843 0.451,-0.843 0.27,0 0.691,0.452 1.322,0.362 0.631,-0.09 0.967,-0.842 1.353,-0.992 0.385,-0.15 0.961,-0.15 1.262,0.406 0.3,0.556 0.751,0.616 1.473,0.586 0.721,-0.03 1.472,-0.271 1.953,-0.15 0.481,0.12 0.391,0.511 0.962,0.18 0.571,-0.331 1.172,-1.066 1.022,-1.24 -0.15,-0.173 -3.156,-1.225 -3.426,-1.525 -0.271,-0.301 -1.864,-1.298 -1.443,-1.924 0.421,-0.625 0.992,-0.811 1.142,-1.022 0.051,-0.071 0.135,-0.261 0.227,-0.521"
             style="fill:none;stroke:#294099;stroke-width:0.40000001;stroke-linecap:butt;stroke-linejoin:miter;stroke-miterlimit:4;stroke-dasharray:none;stroke-opacity:1"
             id="path78"
             inkscape:connector-curvature="0" /></g><g
           id="g80"
           transform="translate(30.5337,82.854)"><path
             d="m 0,0 c 0,0 -0.06,-0.571 0.18,-0.842 0.241,-0.27 1.984,-1.412 2.435,-1.562 0.451,-0.151 1.743,-1.113 2.104,-1.173 0.36,-0.06 0.931,0.571 1.262,0.902 0.331,0.331 0.782,0.511 1.443,0.361 0.661,-0.151 1.082,-0.271 1.563,-0.151 0.481,0.121 1.01,0.633 1.527,0.302 0.517,-0.332 0.757,-0.452 0.577,-0.903 -0.181,-0.451 -0.577,-0.42 -0.577,-0.811 0,-0.391 0.63,-1.743 0.769,-2.044"
             style="fill:none;stroke:#294099;stroke-width:0.80000001;stroke-linecap:butt;stroke-linejoin:miter;stroke-miterlimit:4;stroke-dasharray:none;stroke-opacity:1"
             id="path82"
             inkscape:connector-curvature="0" /></g><g
           id="g84"
           transform="translate(110.332,30.3164)"><path
             d="m 0,0 c 0,0 -0.661,0.391 -0.933,0.721 -0.269,0.331 -1.231,1.383 -0.87,1.774 0.36,0.39 0.571,0.36 0.991,0.33 0.42,-0.03 1.173,-0.088 1.533,0.03 C 1.082,2.974 1.266,3.096 1.46,3.426 1.653,3.757 1.894,4.058 1.983,4.599 2.074,5.14 2.164,5.53 2.284,5.801 2.404,6.071 2.705,6.579 3.006,6.46 3.306,6.342 3.787,6.372 3.997,6.342 4.208,6.312 4.357,6.46 4.357,6.46"
             style="fill:none;stroke:#294099;stroke-width:0.40000001;stroke-linecap:butt;stroke-linejoin:miter;stroke-miterlimit:4;stroke-dasharray:none;stroke-opacity:1"
             id="path86"
             inkscape:connector-curvature="0" /></g><g
           id="g88"
           transform="translate(29.7451,36.8403)"><path
             d="M 0,0 C 0,0 0.865,1.699 1.441,0.849 2.018,0 3.539,-1.693 4.076,-0.558 c 0.225,0.476 0.394,1.8 0.536,3.217"
             style="fill:none;stroke:#294099;stroke-width:0.40000001;stroke-linecap:butt;stroke-linejoin:miter;stroke-miterlimit:4;stroke-dasharray:none;stroke-opacity:1"
             id="path90"
             inkscape:connector-curvature="0" /></g><g
           id="g92"
           transform="translate(35.4629,29.2344)"><path
             d="m 0,0 c 0,0 0.769,0.301 0.769,0.842 v 1.923 c 0,0.301 -0.133,0.74 0,1.211 0.132,0.472 0.073,0.773 0.734,0.773 0.661,0 1.668,-0.523 2.216,-0.773 C 4.268,3.727 5.098,3.607 5.585,3.547 6.071,3.486 6.672,2.911 6.853,2.645 7.033,2.379 8.356,0.721 8.716,0.541 c 0.361,-0.18 1.263,-0.601 1.383,-1.142 0.12,-0.541 0.36,-0.842 0.541,-0.721 0.18,0.12 -0.481,2.043 -0.601,2.404 -0.121,0.361 -0.722,2.302 -0.722,2.894 0,0.592 -0.36,1.795 -0.06,1.795 0.301,0 1.546,-0.438 1.546,-0.82 0,-0.383 2.001,-1.825 2.241,-1.945 0.241,-0.121 1.744,-1.744 1.924,-1.924 0.18,-0.18 0.481,-0.24 0.962,-0.12 0.481,0.12 2.85,0.3 3.078,0.36 0.228,0.061 1.009,-0.18 1.61,-0.3 0.601,-0.12 1.218,-0.12 1.721,0.18 0.503,0.301 1.525,-0.026 1.706,0.492 0.18,0.517 0.481,0.744 0.901,0.517 0.421,-0.227 0.722,-1.129 0.722,-1.309 0,-0.181 0.357,-1.203 0.569,-1.503 0.212,-0.301 0.994,-1.73 0.994,-1.73 0,0 0.781,-2.478 0.901,-3.019 0.121,-0.541 0.722,-0.721 0.902,-0.841 0.18,-0.121 1.277,-1.082 1.924,-2.044 0.646,-0.962 1.262,-1.984 1.743,-2.044 0.481,-0.06 0.841,0.06 0.902,0.721 0.06,0.662 -0.097,2.946 0.131,3.427 0.229,0.481 0.229,0.481 0.77,0.541 0.541,0.06 1.984,1.082 2.164,1.984 0.181,0.901 0.13,2.704 0.13,3.005 0,0.3 -0.4,1.082 -0.13,1.503 0.269,0.42 1.021,-0.121 1.082,-0.361 0.06,-0.24 1.623,-2.298 1.623,-2.802 0,-0.504 0.218,-1.827 1.022,-2.427 0.804,-0.602 1.864,-1.443 2.825,-1.443 0.962,0 1.744,-0.01 1.924,-0.725 0.18,-0.718 0.481,-1.74 0.841,-2.04 0.361,-0.301 0.782,-0.782 0.661,-1.323 -0.12,-0.541 -0.48,-1.022 -1.021,-1.142 -0.541,-0.119 -0.842,-0.301 -0.962,-0.842 -0.12,-0.541 -0.181,-1.623 -0.421,-2.044 -0.24,-0.42 -1.082,-1.382 -1.082,-1.382"
             style="fill:none;stroke:#294099;stroke-width:0.80000001;stroke-linecap:butt;stroke-linejoin:miter;stroke-miterlimit:4;stroke-dasharray:none;stroke-opacity:1"
             id="path94"
             inkscape:connector-curvature="0" /></g><g
           id="g96"
           transform="translate(38.228,25.5371)"><path
             d="M 0,0 V 1.743 C 0,2.284 0.301,4.29 0.721,4.64 1.142,4.989 1.383,5.095 1.803,4.742 2.224,4.389 2.705,4.269 3.006,4.208 3.306,4.148 3.847,3.788 4.148,3.607 4.448,3.426 5.41,3.048 5.711,2.547 6.011,2.045 6.011,1.189 6.252,0.902 6.492,0.615 6.733,0.422 7.153,0 c 0.421,-0.421 0.541,-0.901 0.842,-1.321 0.3,-0.421 0.601,-1.144 0.781,-0.421 0.181,0.721 -0.06,1.95 0.361,2.357 0.421,0.407 0.24,1.008 1.082,0.228 0.842,-0.782 1.383,-0.843 1.683,-0.662 0.301,0.18 1.683,2.103 2.284,2.405 0.602,0.3 1.203,0.601 1.503,0.3 0.301,-0.3 1.142,-0.181 1.443,-0.12 0.3,0.059 1.238,0.059 1.581,-0.18 0.342,-0.241 0.703,-0.723 1.124,-0.541 0.421,0.18 1.142,0.961 1.443,1.142 0.3,0.18 0.541,0.661 0.721,0.299 0.18,-0.36 0.18,-1.334 0.481,-1.682 0.3,-0.349 1.382,-1.864 1.382,-2.405 0,-0.541 -0.493,-2.044 -0.18,-2.464 0.313,-0.42 1.864,-1.803 2.284,-2.043 0.421,-0.242 1.954,-1.383 2.285,-1.924 0.33,-0.541 1.322,-1.924 1.743,-1.985 0.421,-0.059 0.841,-0.36 1.322,0.181 0.481,0.541 1.562,1.684 1.562,2.225 0,0.541 -0.094,1.441 0.134,1.802 0.228,0.362 0.649,0.776 0.889,1.744 0.241,0.968 0.241,1.382 0.6,1.744 0.362,0.359 0.602,0.479 0.602,0.479 0,0 0.662,-0.961 0.782,-1.502 0.119,-0.541 0.06,-2.044 0.541,-2.705 0.481,-0.662 0.721,-1.623 0.901,-2.345 0.181,-0.72 0.129,-3.606 0.129,-4.086 0,-0.482 -0.67,-1.61 -0.67,-1.61"
             style="fill:none;stroke:#294099;stroke-width:0.40000001;stroke-linecap:butt;stroke-linejoin:miter;stroke-miterlimit:4;stroke-dasharray:none;stroke-opacity:1"
             id="path98"
             inkscape:connector-curvature="0" /></g><g
           id="g100"
           transform="translate(46.7036,19.3457)"><path
             d="m 0,0 c 0,0 1.142,1.202 1.623,1.263 0.481,0.059 1.262,0.305 1.623,0.6 0.361,0.296 1.503,1.203 1.683,2.826 0.18,1.623 1.263,2.826 1.683,2.885 0.421,0.061 0.686,0.18 1.155,-0.12 C 8.235,7.153 9.558,5.351 10.039,5.29 10.52,5.23 11,4.148 11.301,3.486 c 0.301,-0.661 1.503,-1.327 1.924,-1.327 0.42,0 1.262,-0.716 1.382,-1.137 0.12,-0.42 0.541,-1.319 0.842,-1.621 0.3,-0.302 1.442,-1.204 1.142,-2.166 -0.301,-0.962 -0.962,-1.743 -1.082,-2.044 -0.12,-0.3 -0.06,-1.082 -0.06,-1.082"
             style="fill:none;stroke:#294099;stroke-width:0.40000001;stroke-linecap:butt;stroke-linejoin:miter;stroke-miterlimit:4;stroke-dasharray:none;stroke-opacity:1"
             id="path102"
             inkscape:connector-curvature="0" /></g><g
           id="g104"
           transform="translate(49.2759,18.2637)"><path
             d="m 0,0 c 0,0 1.563,0.722 1.803,1.263 0.241,0.541 1.443,1.857 1.683,1.978 0.241,0.121 0.481,1.028 0.481,1.327 0,0.301 0.121,1.143 0.601,1.263 0.481,0.12 1.335,-0.36 1.335,-0.66 0,-0.302 1.13,-2.505 1.31,-2.826 0.181,-0.323 1.18,-1.502 1.18,-2.225 0,-0.721 0.443,-1.562 0.504,-1.923 C 8.957,-2.164 9.039,-2.89 8.716,-3.098 8.393,-3.306 8.374,-3.485 8.374,-3.485"
             style="fill:none;stroke:#294099;stroke-width:0.40000001;stroke-linecap:butt;stroke-linejoin:miter;stroke-miterlimit:4;stroke-dasharray:none;stroke-opacity:1"
             id="path106"
             inkscape:connector-curvature="0" /></g><g
           id="g108"
           transform="translate(69.9814,41.2871)"><path
             d="m 0,0 c -0.165,-0.511 -0.736,-1.172 -0.736,-1.443 0,-0.27 -0.15,-1.472 -0.33,-1.743 -0.181,-0.27 -1.413,-1.202 -1.503,-1.443 -0.09,-0.24 -0.511,-1.516 -0.451,-2.02 0.06,-0.504 -0.06,-0.835 0.301,-0.534 0.36,0.3 1.623,2.344 1.743,2.615 0.12,0.27 0.781,1.406 1.052,1.635 0.27,0.228 0.931,1.22 1.172,1.671 0.139,0.261 0.339,0.725 0.418,1.168"
             style="fill:none;stroke:#294099;stroke-width:0.40000001;stroke-linecap:butt;stroke-linejoin:miter;stroke-miterlimit:4;stroke-dasharray:none;stroke-opacity:1"
             id="path110"
             inkscape:connector-curvature="0" /></g><g
           id="g112"
           transform="translate(37.5063,39.6265)"><path
             d="m 0,0 c 0.366,-0.466 0.661,-0.991 0.661,-1.273 0,-0.493 2.363,-2.644 2.622,-2.837 0.258,-0.194 1.454,-1.156 1.947,-0.879 0.493,0.278 -0.363,1.36 0.065,1.84 0.428,0.481 2.498,0.782 3.061,0.541 0.562,-0.24 1.983,-1.288 2.404,-1.696 0.421,-0.407 2.164,-2.211 2.825,-2.391 0.662,-0.18 3.246,-0.472 3.727,-0.472 0.481,0 3.908,-0.472 4.208,0 0.301,0.472 1.514,1.915 1.989,1.794 0.476,-0.12 1.114,-0.318 1.419,-0.82 0.305,-0.502 0.305,-2.305 0.305,-2.666 0,-0.361 0.132,-1.804 0.132,-2.104 0,-0.301 1.565,-2.645 1.565,-2.645 0,0 0.601,-0.541 0.662,0.421 0.06,0.962 -0.814,2.585 0.449,3.787 1.263,1.202 2.195,1.503 3.037,1.623 0.842,0.12 1.443,0.584 1.803,1.584 0.361,1.001 1.263,2.254 1.744,2.545 0.48,0.29 2.042,0.98 2.945,-0.402 0.902,-1.383 1.188,-3.126 1.586,-2.886 0.398,0.241 2.021,2.057 2.442,2.345 0.42,0.287 1.382,-0.181 1.683,-0.601 0.3,-0.421 1.863,-2.585 1.863,-2.886 0,-0.3 -0.12,-0.601 -0.3,-1.082 -0.181,-0.481 -0.361,-1.803 -0.121,-1.983 0.241,-0.181 2.405,-2.705 2.525,-3.126 0.12,-0.421 1.082,-2.284 1.924,-2.224 0.841,0.06 1.442,0.42 1.743,0.901 0.3,0.481 1.262,1.924 1.743,2.164 0.481,0.241 0.782,0.241 0.962,0.241 0.18,0 0.721,-0.301 0.661,-0.601 -0.06,-0.301 -0.3,-1.443 -0.3,-1.984 0,-0.541 0.06,-1.623 0.601,-1.803 0.541,-0.181 1.682,-0.361 2.043,-0.782 0.362,-0.421 0.481,-1.142 0.962,-1.503 0.481,-0.36 1.563,-0.901 1.563,-0.901"
             style="fill:none;stroke:#294099;stroke-width:0.40000001;stroke-linecap:butt;stroke-linejoin:miter;stroke-miterlimit:4;stroke-dasharray:none;stroke-opacity:1"
             id="path114"
             inkscape:connector-curvature="0" /></g><g
           id="g116"
           transform="translate(41.5518,39.8848)"><path
             d="m 0,0 c -0.32,-0.317 -0.535,-0.647 -0.763,-0.672 -0.277,-0.03 -0.667,0.271 -0.818,0.451 -0.023,0.028 -0.073,0.098 -0.141,0.197"
             style="fill:none;stroke:#294099;stroke-width:0.40000001;stroke-linecap:butt;stroke-linejoin:miter;stroke-miterlimit:4;stroke-dasharray:none;stroke-opacity:1"
             id="path118"
             inkscape:connector-curvature="0" /></g><g
           id="g120"
           transform="translate(52.6401,40.4043)"><path
             d="m 0,0 c 0.065,-0.091 0.105,-0.179 0.105,-0.259 0,-0.361 0.511,-1.924 0.751,-2.345 0.241,-0.42 0.842,-1.42 0.842,-1.822 0,-0.402 -0.06,-0.642 -0.541,-0.462 -0.481,0.18 -2.946,1.323 -3.126,1.383 -0.18,0.06 -0.842,0.961 -1.383,0.961 -0.541,0 -1.382,0.265 -1.623,0.493 -0.24,0.229 -1.322,1.01 -1.623,1.131 -0.191,0.076 -1.085,0.346 -1.789,0.533"
             style="fill:none;stroke:#294099;stroke-width:0.40000001;stroke-linecap:butt;stroke-linejoin:miter;stroke-miterlimit:4;stroke-dasharray:none;stroke-opacity:1"
             id="path122"
             inkscape:connector-curvature="0" /></g><g
           id="g124"
           transform="translate(47.9546,40.2686)"><path
             d="m 0,0 c 0.123,-0.119 0.234,-0.226 0.312,-0.304 0.3,-0.3 0.661,-0.628 1.082,-0.361 0.421,0.267 0.565,0.361 0.793,0.511 0.064,0.042 0.126,0.106 0.184,0.18"
             style="fill:none;stroke:#294099;stroke-width:0.40000001;stroke-linecap:butt;stroke-linejoin:miter;stroke-miterlimit:4;stroke-dasharray:none;stroke-opacity:1"
             id="path126"
             inkscape:connector-curvature="0" /></g><g
           id="g128"
           transform="translate(66.2158,41.0249)"><path
             d="m 0,0 c -0.004,-0.068 -0.006,-0.131 -0.006,-0.189 0,-0.721 0.18,-1.545 -0.09,-2.014 -0.271,-0.469 -1.576,-1.052 -2.051,-1.472 -0.474,-0.421 -0.474,-0.662 -0.684,-0.872 -0.211,-0.21 -0.481,0.03 -0.632,0.481 -0.15,0.451 -0.541,1.202 -0.541,1.593 0,0.25 0.111,1.374 0.136,2.238"
             style="fill:none;stroke:#294099;stroke-width:0.40000001;stroke-linecap:butt;stroke-linejoin:miter;stroke-miterlimit:4;stroke-dasharray:none;stroke-opacity:1"
             id="path130"
             inkscape:connector-curvature="0" /></g><g
           id="g132"
           transform="translate(64.8271,40.9644)"><path
             d="m 0,0 c -0.03,-0.421 0.18,-1.172 -0.24,-1.353 -0.421,-0.18 -0.692,-0.121 -0.692,-0.121 0,0 0.027,0.816 -0.033,1.331"
             style="fill:none;stroke:#294099;stroke-width:0.40000001;stroke-linecap:butt;stroke-linejoin:miter;stroke-miterlimit:4;stroke-dasharray:none;stroke-opacity:1"
             id="path134"
             inkscape:connector-curvature="0" /></g><g
           id="g136"
           transform="translate(77.2861,41.7021)"><path
             d="m 0,0 c 0.286,-0.632 0.557,-1.342 0.827,-1.67 0.33,-0.401 0.779,-0.969 1.079,-0.501 0.199,0.311 0.479,1.404 0.776,2.121"
             style="fill:none;stroke:#294099;stroke-width:0.40000001;stroke-linecap:butt;stroke-linejoin:miter;stroke-miterlimit:4;stroke-dasharray:none;stroke-opacity:1"
             id="path138"
             inkscape:connector-curvature="0" /></g><g
           id="g140"
           transform="translate(81.5488,41.5396)"><path
             d="m 0,0 c 0.285,-0.386 0.57,-0.956 0.621,-1.335 0.06,-0.45 0.541,-2.919 0.992,-3.428 0.45,-0.509 1.232,-1.765 1.352,-2.342 0.12,-0.578 -0.12,-1.332 0.271,-1.653 0.39,-0.322 1.562,-1.413 1.653,-1.714 0.09,-0.3 0.127,-1.292 0.127,-1.653 0,-0.36 -0.308,-0.961 0.293,-1.142 0.601,-0.18 1.353,-0.525 1.774,-0.127 0.42,0.398 0.721,0.428 0.931,0.548 0.211,0.12 1.353,1.383 1.353,1.924 0,0.541 0.24,2.314 0.691,2.404 0.451,0.09 0.601,0.18 0.782,0.18 0.181,0 1.321,-0.571 1.713,-0.961 0.391,-0.391 1.653,-1.563 1.893,-1.774 0.242,-0.21 0.722,-1.112 0.783,-1.472 0.059,-0.361 1.111,-1.714 1.502,-2.014 0.39,-0.301 0.631,-0.571 0.631,-1.202 0,-0.632 -0.181,-1.834 -0.181,-2.315 0,-0.481 0.025,-1.412 0.313,-1.533 0.289,-0.12 0.86,-0.36 1.25,0.091 0.391,0.45 0.571,0.511 1.052,0.541 0.481,0.03 1.173,0.33 1.413,0.631 0.24,0.3 1.142,2.344 1.142,2.885 0,0.541 -0.631,1.533 -0.902,1.954 -0.27,0.421 -0.39,1.232 -0.06,1.262 0.331,0.03 0.361,-0.421 1.413,-0.361 1.052,0.061 2.104,0.091 2.585,-0.15 0.481,-0.24 1.202,-0.902 1.202,-0.902"
             style="fill:none;stroke:#294099;stroke-width:0.40000001;stroke-linecap:butt;stroke-linejoin:miter;stroke-miterlimit:4;stroke-dasharray:none;stroke-opacity:1"
             id="path142"
             inkscape:connector-curvature="0" /></g><g
           id="g144"
           transform="translate(32.8618,76.4541)"><path
             d="m 0,0 c -0.191,0.151 -0.984,0.682 -0.984,0.682 0,0 -0.142,0.038 -0.735,0.075 -0.593,0.038 -1.432,0.689 -1.687,0.689 h -0.987 -0.7"
             style="fill:none;stroke:#294099;stroke-width:0.80000001;stroke-linecap:butt;stroke-linejoin:miter;stroke-miterlimit:4;stroke-dasharray:none;stroke-opacity:1"
             id="path146"
             inkscape:connector-curvature="0" /></g><g
           id="g148"
           transform="translate(84.7568,42.0986)"><path
             d="m 0,0 c 0.138,-0.337 0.313,-0.844 0.358,-1.022 0.06,-0.24 0,-0.902 0.06,-1.202 0.061,-0.301 0.512,-1.142 0.512,-1.142 0,0 0.044,-0.359 -0.331,-0.211 -0.375,0.148 -1.864,2.675 -2.105,3.006 -0.061,0.086 -0.116,0.216 -0.163,0.368"
             style="fill:none;stroke:#294099;stroke-width:0.80000001;stroke-linecap:butt;stroke-linejoin:miter;stroke-miterlimit:4;stroke-dasharray:none;stroke-opacity:1"
             id="path150"
             inkscape:connector-curvature="0" /></g><g
           id="g152"
           transform="translate(87.0713,42.3955)"><path
             d="M 0,0 C -0.02,-0.553 0.102,-1.14 0.418,-1.439 0.929,-1.922 1.5,-2.178 1.65,-2.762 1.801,-3.345 2.312,-4.34 2.673,-4.768 c 0.359,-0.428 1.322,-0.891 1.923,-0.488 0.6,0.402 1.022,0.834 1.503,0.661 0.481,-0.173 1.112,-1.601 2.133,-1.822 1.023,-0.222 1.564,-0.102 1.774,-0.252 0.211,-0.15 1.593,-1.443 1.804,-1.773 0.21,-0.331 1.051,-1.293 1.653,-1.353 0.6,-0.06 1.082,0.211 1.623,0.241 0.541,0.03 1.382,-0.181 1.862,-0.03 0.482,0.15 1.202,0.12 1.684,0.18 0.48,0.06 1.744,0.601 1.593,1.292 -0.15,0.692 -0.3,1.563 -0.27,1.834 0.029,0.27 0.691,1.292 1.052,1.262 0.36,-0.03 0.571,-0.064 0.631,-0.603 0.059,-0.539 0.21,-1.14 0.451,-1.501 0.24,-0.36 0.3,-0.841 0.69,-0.451 0.392,0.391 1.132,1.947 1.363,2.375 0.231,0.428 0.291,0.33 0.681,0.571 0.392,0.24 1.594,0.8 1.833,1.572 0.241,0.772 0.482,2.25 0.482,2.744 0,0.177 0.016,0.477 0.039,0.787"
             style="fill:none;stroke:#294099;stroke-width:0.40000001;stroke-linecap:butt;stroke-linejoin:miter;stroke-miterlimit:4;stroke-dasharray:none;stroke-opacity:1"
             id="path154"
             inkscape:connector-curvature="0" /></g><g
           id="g156"
           transform="translate(49.8428,77.4126)"><path
             d="m 0,0 c 0.239,0.172 0.429,0.353 0.498,0.488 0.18,0.355 0.691,0.565 0.811,0.385 0.12,-0.18 0.421,-0.631 1.112,-0.571 0.691,0.06 2.395,0.3 2.67,0.511 0.276,0.21 0.907,0.27 1.388,0.27 0.481,0 1.232,0.03 1.683,0.241 0.451,0.21 0.902,0.36 1.202,0.3 0.301,-0.06 0.721,-0.451 1.052,-0.451 0.331,0 0.754,-0.216 1.052,-0.45 0.089,-0.071 0.214,-0.126 0.354,-0.173"
             style="fill:none;stroke:#294099;stroke-width:0.40000001;stroke-linecap:butt;stroke-linejoin:miter;stroke-miterlimit:4;stroke-dasharray:none;stroke-opacity:1"
             id="path158"
             inkscape:connector-curvature="0" /></g><g
           id="g160"
           transform="translate(103.3467,42.8003)"><path
             d="m 0,0 c -0.563,-0.24 -2.058,-0.892 -2.452,-0.892 -0.46,0 -0.571,-0.015 -0.962,0.178 -0.391,0.193 -0.992,0.203 -1.142,-0.178 -0.151,-0.381 -0.602,-1.343 -0.812,-1.643 -0.21,-0.301 -1.473,-0.923 -1.653,-0.923 -0.18,0 -1.232,0.262 -1.623,0.262 -0.391,0 -0.751,-0.129 -0.842,-0.262 -0.09,-0.132 0.091,-1.248 0.511,-1.482 0.421,-0.233 2.645,-0.601 2.946,-0.751 0.3,-0.15 1.368,-1.112 1.714,-1.383 0.344,-0.27 1.652,-0.24 1.953,-0.33 0.3,-0.09 0.673,-0.571 1.052,-0.601 0.379,-0.03 0.45,-0.06 0.721,0.09 0.271,0.15 0.962,0.24 1.774,0.24 0.811,0 1.232,0.451 1.412,0.752 0.18,0.3 0.738,1.202 0.738,1.623 0,0.421 0.284,0.541 0.494,0.661 0.211,0.12 1.233,1.415 1.323,1.863 0.09,0.449 0.39,1.263 0.481,1.413 0.09,0.15 0.33,0.211 0.33,0.03 0,-0.18 -0.06,-0.881 -0.06,-1.503 0,-0.622 0.21,-0.716 0.271,-0.914 0.06,-0.198 0.03,-1.115 0.03,-1.423 0,-0.308 0.03,-1.029 0.33,-0.999 0.301,0.03 0.752,0.616 0.932,0.999 0.18,0.384 0.345,0.925 0.661,1.075 0.318,0.15 1.474,1.108 1.653,1.771 0.13,0.478 0.081,1.582 0.085,2.35"
             style="fill:none;stroke:#294099;stroke-width:0.40000001;stroke-linecap:butt;stroke-linejoin:miter;stroke-miterlimit:4;stroke-dasharray:none;stroke-opacity:1"
             id="path162"
             inkscape:connector-curvature="0" /></g><g
           id="g164"
           transform="translate(106.1172,42.7251)"><path
             d="m 0,0 c -0.303,-0.128 -0.598,-0.219 -0.835,-0.236 -0.842,-0.06 -1.142,-0.06 -1.593,-0.451 -0.451,-0.39 -0.631,-0.691 -1.051,-0.811 -0.421,-0.12 -1.803,-0.331 -2.105,-0.421 -0.3,-0.09 -1.292,-0.541 -1.683,-0.992 -0.39,-0.451 -0.962,-1.052 -0.42,-1.593 0.541,-0.541 0.992,-0.962 1.592,-1.202 0.602,-0.24 1.774,-0.481 1.924,-0.721 0.15,-0.241 0.932,-0.181 1.292,-0.181 0.361,0 1.053,0.121 1.413,0.391 0.361,0.271 1.593,1.623 1.774,2.194 0.179,0.571 0.03,0.842 0.12,1.082 0.09,0.241 0.39,0.09 0.6,0.301 0.211,0.21 1.293,1.863 1.503,2.224 0.073,0.122 0.178,0.308 0.294,0.503"
             style="fill:none;stroke:#294099;stroke-width:0.40000001;stroke-linecap:butt;stroke-linejoin:miter;stroke-miterlimit:4;stroke-dasharray:none;stroke-opacity:1"
             id="path166"
             inkscape:connector-curvature="0" /></g><g
           id="g168"
           transform="translate(110.2363,42.9868)"><path
             d="m 0,0 c 0.074,-0.58 0.143,-1.234 0.125,-1.429 -0.029,-0.347 -0.239,-0.474 0.03,-1.232 0.271,-0.758 0.45,-0.79 0.661,-0.347 0.21,0.442 0.781,1.263 0.84,1.737 0.061,0.474 0.12,0.98 0.21,1.169 0.021,0.042 0.051,0.094 0.089,0.157"
             style="fill:none;stroke:#294099;stroke-width:0.40000001;stroke-linecap:butt;stroke-linejoin:miter;stroke-miterlimit:4;stroke-dasharray:none;stroke-opacity:1"
             id="path170"
             inkscape:connector-curvature="0" /></g><g
           id="g172"
           transform="translate(111.3926,43.0181)"><path
             d="m 0,0 c -0.022,-0.141 -0.039,-0.282 -0.039,-0.439 0,-0.373 -0.451,-0.361 -0.451,-0.361 -0.013,0.146 0.015,0.419 0.037,0.716"
             style="fill:none;stroke:#294099;stroke-width:0.40000001;stroke-linecap:butt;stroke-linejoin:miter;stroke-miterlimit:4;stroke-dasharray:none;stroke-opacity:1"
             id="path174"
             inkscape:connector-curvature="0" /></g><g
           id="g176"
           transform="translate(116.373,42.9399)"><path
             d="M 0,0 C 0.21,-0.21 -0.022,-0.601 0.094,-1.202 0.21,-1.803 0.511,-1.833 0.602,-1.653"
             style="fill:none;stroke:#294099;stroke-width:0.40000001;stroke-linecap:butt;stroke-linejoin:miter;stroke-miterlimit:4;stroke-dasharray:none;stroke-opacity:1"
             id="path178"
             inkscape:connector-curvature="0" /></g><g
           id="g180"
           transform="translate(115.2383,42.9849)"><path
             d="M 0,0 C 0.142,-0.344 0.245,-0.72 0.233,-1.076 0.203,-1.968 -0.02,-2.699 0.173,-3.171 0.367,-3.642 0.684,-3.934 0.684,-3.934"
             style="fill:none;stroke:#294099;stroke-width:0.40000001;stroke-linecap:butt;stroke-linejoin:miter;stroke-miterlimit:4;stroke-dasharray:none;stroke-opacity:1"
             id="path182"
             inkscape:connector-curvature="0" /></g><g
           id="g184"
           transform="translate(68.4707,78.0464)"><path
             d="m 0,0 c -0.059,-0.136 -0.097,-0.262 -0.097,-0.362 0,-0.33 0.03,-0.216 0.391,0 C 0.655,-0.146 1.256,0.72 1.887,0.78 2.518,0.841 3.148,0.841 3.66,0.75 4.171,0.66 5.374,0.51 5.764,0.54 6.155,0.57 7.327,0.51 7.808,0.3 8.058,0.19 8.438,0.056 8.809,-0.093"
             style="fill:none;stroke:#294099;stroke-width:0.80000001;stroke-linecap:butt;stroke-linejoin:miter;stroke-miterlimit:4;stroke-dasharray:none;stroke-opacity:1"
             id="path186"
             inkscape:connector-curvature="0" /></g><g
           id="g188"
           transform="translate(106.96,79.7759)"><path
             d="m 0,0 c 0.117,0.127 0.22,0.237 0.336,0.283 0.301,0.121 2.644,1.047 2.856,2.134 0.21,1.088 0.18,1.683 0.27,2.164 0.09,0.481 0.691,1.533 0.812,1.653 0.12,0.121 0.093,0.211 0.093,0.211"
             style="fill:none;stroke:#294099;stroke-width:0.80000001;stroke-linecap:butt;stroke-linejoin:miter;stroke-miterlimit:4;stroke-dasharray:none;stroke-opacity:1"
             id="path190"
             inkscape:connector-curvature="0" /></g><g
           id="g192"
           transform="translate(132.8896,43.6982)"><path
             d="m 0,0 -1.637,37.502 -1.615,-0.071 -9.76,-21.25 c 1.182,0.86 2.515,1.401 3.966,1.551 0.37,0.039 0.455,0.043 0.75,0.064 h 0.895 c 0.024,-0.006 0.131,-0.003 0.156,-0.005 0.39,-0.038 0.781,-0.06 1.168,-0.115 0.492,-0.071 0.979,-0.167 1.404,-0.452 0.515,-0.348 0.882,-0.798 1.001,-1.422 l 0.021,-0.361 c -0.03,-0.291 -0.122,-0.565 -0.284,-0.805 -0.244,-0.363 -0.579,-0.598 -1.031,-0.626 -0.147,-0.009 -0.296,0 -0.443,0.01 -0.57,0.033 -1.003,0.293 -1.237,0.818 -0.132,0.3 -0.208,0.624 -0.305,0.939 -0.069,0.223 -0.172,0.42 -0.422,0.464 -0.186,0.033 -0.381,0.052 -0.568,0.033 -0.236,-0.023 -0.469,-0.088 -0.702,-0.14 -0.735,-0.16 -1.44,-0.393 -2.071,-0.823 -0.685,-0.469 -1.164,-1.076 -1.378,-1.883 -0.176,-0.663 0.119,-1.342 0.721,-1.672 0.504,-0.277 1.043,-0.455 1.6,-0.585 C -9,10.993 -8.225,10.833 -7.456,10.645 -6.721,10.464 -6.047,10.158 -5.567,9.54 -4.986,8.787 -4.643,7.954 -4.796,6.98 -4.877,6.473 -5.03,5.982 -5.245,5.514 -6.069,3.718 -7.402,2.454 -9.228,1.705 c -0.941,-0.387 -1.917,-0.607 -2.94,-0.518 -0.572,0.05 -1.145,0.103 -1.711,0.186 -0.597,0.087 -1.184,0.214 -1.745,0.44 l 1.115,-2.447 z"
             style="fill:#2a3981;fill-opacity:1;fill-rule:nonzero;stroke:none"
             id="path194"
             inkscape:connector-curvature="0" /></g><g
           id="g196"
           transform="translate(116.5098,48.7539)"><path
             d="m 0,0 c 0.967,0.482 2.099,-0.148 2.46,-0.975 0.141,-0.323 0.275,-0.648 0.414,-0.973 0.094,-0.222 0.225,-0.307 0.467,-0.29 0.268,0.019 0.538,0.04 0.805,0.067 0.741,0.079 1.452,0.256 2.089,0.651 0.831,0.515 1.439,1.198 1.472,2.231 C 7.724,1.259 7.531,1.748 7.077,2.092 6.409,2.597 5.631,2.86 4.826,3.021 3.972,3.192 3.178,3.457 2.484,4.009 1.895,4.48 1.462,5.041 1.296,5.781 1.25,5.986 1.218,6.19 1.196,6.395 l -2.425,-5.28 0.703,-1.541 C -0.392,-0.253 -0.219,-0.109 0,0"
             style="fill:#2a3981;fill-opacity:1;fill-rule:nonzero;stroke:none"
             id="path198"
             inkscape:connector-curvature="0" /></g><g
           id="g200"
           transform="translate(102.6318,52.436)"><path
             d="M 0,0 C 0.764,0.518 1.494,1.08 2.184,1.695 2.913,2.347 3.6,3.039 4.043,3.929 4.324,4.495 4.493,5.082 4.471,5.733 4.446,6.407 3.777,7.013 3.114,6.99 2.744,6.977 2.387,6.886 2.088,6.655 1.77,6.41 1.506,6.112 1.3,5.762 0.98,5.218 0.767,4.627 0.562,4.038 0.246,3.136 -0.049,2.224 -0.209,1.278 -0.276,0.884 -0.264,0.683 -0.302,0.279 -0.297,0.17 -0.323,-0.144 -0.323,-0.144 c 0,0 0.137,0.053 0.206,0.084 C -0.078,-0.041 -0.036,-0.025 0,0"
             style="fill:#2a3981;fill-opacity:1;fill-rule:nonzero;stroke:none"
             id="path202"
             inkscape:connector-curvature="0" /></g><g
           id="g204"
           transform="translate(35.8062,56.2251)"><path
             d="M 0,0 C 0.368,0.477 0.455,1.025 0.493,1.453 0.535,1.92 0.421,2.6 0.051,2.839 -0.063,2.913 -0.218,2.98 -0.398,3.02 -0.605,3.065 -0.834,3.025 -0.943,3.018 -1.978,2.954 -3.992,1.279 -3.992,1.279 c 0,0 -1.132,-1.088 -1.439,-1.489 -0.308,-0.401 -0.78,-1.34 -0.954,-2.296 -0.174,-0.95 -0.636,-1.142 0.927,-0.895 1.563,0.246 3.358,1.321 4.035,1.841 C -0.994,-1.231 -0.546,-0.709 0,0"
             style="fill:#2a3981;fill-opacity:1;fill-rule:nonzero;stroke:none"
             id="path206"
             inkscape:connector-curvature="0" /></g><g
           id="g208"
           transform="translate(51.0903,58.709)"><path
             d="m 0,0 c -1.992,0.805 -4.625,-1.061 -5.881,-4.169 -1.256,-3.108 -0.658,-6.28 1.335,-7.084 1.992,-0.806 4.625,1.061 5.881,4.169 C 2.59,-3.976 1.993,-0.805 0,0"
             style="fill:#2a3981;fill-opacity:1;fill-rule:nonzero;stroke:none"
             id="path210"
             inkscape:connector-curvature="0" /></g><g
           id="g212"
           transform="translate(96.4814,48.3501)"><path
             d="m 0,0 -2.814,-2.03 c 0,0 -1.251,-0.932 -1.618,-1.119 -0.365,-0.186 -1.143,-0.516 -1.686,-0.264 -0.543,0.251 -0.795,0.316 -0.966,0.934 0,0 -0.1,0.622 0.052,1.326 0.149,0.704 2.365,9.64 2.365,9.64 0,0 0.056,0.534 -0.117,0.789 C -4.958,9.531 -5.15,9.745 -5.46,9.666 -5.767,9.587 -6.505,9.196 -6.854,8.908 -7.204,8.62 -8.53,7.191 -8.775,6.809 -9.021,6.427 -10.124,4.484 -10.371,3.926 -10.618,3.368 -11.273,1.55 -11.638,0.244 c -0.364,-1.306 -0.68,-2.422 -0.784,-3.005 l -0.103,-0.582 -3.381,-0.002 2.13,8.673 c 0,0 0.501,2.345 0.533,2.86 0.031,0.515 0.061,0.66 0.019,0.836 -0.042,0.177 -0.149,0.451 -0.341,0.474 -0.192,0.023 -0.233,0.057 -0.519,-0.092 -0.284,-0.149 -0.911,-0.501 -1.305,-0.896 -0.392,-0.395 -0.755,-0.792 -0.85,-0.915 -0.096,-0.124 -0.863,-1.19 -1.211,-1.749 -0.349,-0.558 -0.94,-1.489 -1.2,-2.042 -0.263,-0.553 -0.573,-1.269 -0.692,-1.58 -0.118,-0.311 -0.625,-1.884 -0.75,-2.41 -0.124,-0.526 -0.269,-1.177 -0.386,-1.705 -0.115,-0.528 -0.249,-1.318 -0.249,-1.318 l -0.02,-0.107 -3.373,-0.066 2.372,11.452 c 0,0 0.098,0.698 0.052,0.959 -0.046,0.261 -0.158,0.855 -1.061,0.327 l -2.404,-1.839 0.136,1.462 4.496,3.57 c 0,0 0.742,0.473 1.086,0.532 0.341,0.059 0.723,0.064 0.974,-0.076 0.068,-0.038 0.101,-0.067 0.131,-0.097 0.125,-0.116 0.16,-0.189 0.189,-0.379 0.035,-0.247 0.051,-0.712 -0.037,-1.219 l -0.753,-4.755 2.049,2.369 c 0,0 1.426,1.47 1.656,1.678 0,0 1.155,0.963 1.526,1.245 0.371,0.281 1.439,0.938 1.906,1.069 0.468,0.131 0.997,0.281 1.297,0.171 0.302,-0.11 0.569,-0.187 0.734,-0.461 0.166,-0.274 0.341,-0.569 0.263,-0.972 -0.078,-0.402 -1.077,-4.943 -1.077,-4.943 l 2.587,2.83 c 0,0 2.715,2.49 3.901,3.026 0,0 0.268,0.154 0.526,0.272 0.256,0.119 0.503,0.241 0.77,0.286 0.269,0.044 0.818,0.102 1.148,-0.184 0.331,-0.285 0.583,-0.494 0.66,-0.876 0.075,-0.384 0.141,-0.648 0.065,-1.154 -0.075,-0.505 -2.473,-10.77 -2.473,-10.77 0,0 -0.098,-0.62 -0.05,-0.754 0.047,-0.133 0.07,-0.365 0.396,-0.233 0.327,0.134 3.457,2.405 3.457,2.405 z m -26.667,9.982 c -0.244,-0.363 -0.58,-0.6 -1.03,-0.627 -0.148,-0.009 -0.297,10e-4 -0.445,0.009 -0.568,0.035 -1.003,0.294 -1.235,0.819 -0.133,0.299 -0.209,0.624 -0.306,0.939 -0.068,0.223 -0.172,0.421 -0.421,0.465 -0.188,0.032 -0.382,0.051 -0.568,0.032 -0.238,-0.023 -0.471,-0.088 -0.703,-0.14 -0.735,-0.16 -1.439,-0.392 -2.07,-0.824 -0.686,-0.468 -1.164,-1.074 -1.378,-1.882 -0.177,-0.664 0.118,-1.342 0.72,-1.672 0.504,-0.277 1.043,-0.455 1.6,-0.584 0.771,-0.179 1.546,-0.339 2.315,-0.527 0.735,-0.181 1.41,-0.487 1.889,-1.106 0.581,-0.753 0.924,-1.585 0.771,-2.558 -0.08,-0.509 -0.233,-0.998 -0.449,-1.467 -0.824,-1.796 -2.157,-3.061 -3.982,-3.81 -0.941,-0.385 -1.916,-0.607 -2.941,-0.517 -0.572,0.05 -1.144,0.102 -1.71,0.185 -0.684,0.101 -1.358,0.244 -1.994,0.542 -0.584,0.274 -1.014,0.681 -1.257,1.279 -0.014,0.035 -0.046,0.126 -0.06,0.229 -0.004,0.028 -0.009,0.056 -0.012,0.084 -0.004,0.043 -0.008,0.085 -0.012,0.128 -0.009,0.088 0,0.17 0,0.213 0.007,0.025 0.006,0.052 0.009,0.076 0.081,0.52 0.357,0.9 0.825,1.133 0.965,0.481 2.097,-0.149 2.46,-0.976 0.141,-0.323 0.275,-0.648 0.413,-0.973 0.093,-0.222 0.224,-0.307 0.467,-0.29 0.269,0.018 0.539,0.04 0.807,0.068 0.738,0.078 1.45,0.255 2.088,0.65 0.831,0.516 1.438,1.198 1.471,2.231 0.017,0.548 -0.177,1.038 -0.631,1.381 -0.667,0.506 -1.445,0.768 -2.25,0.929 -0.854,0.171 -1.648,0.436 -2.341,0.989 -0.589,0.47 -1.023,1.031 -1.189,1.772 -0.19,0.85 -0.171,1.691 0.075,2.54 0.314,1.082 0.896,1.971 1.777,2.654 1.233,0.956 2.646,1.541 4.186,1.701 0.371,0.039 0.456,0.044 0.75,0.064 h 0.896 c 0.023,-0.007 0.131,-0.003 0.154,-0.005 0.391,-0.038 0.782,-0.06 1.168,-0.115 0.493,-0.071 0.979,-0.167 1.405,-0.453 0.514,-0.347 0.882,-0.796 1.002,-1.42 l 0.02,-0.362 c -0.03,-0.291 -0.122,-0.565 -0.284,-0.804 M -40.788,3.195 c -1.165,-4.507 -5.175,-7.369 -8.957,-6.392 -3.783,0.977 -5.905,5.423 -4.741,9.931 1.164,4.507 5.174,7.368 8.957,6.391 3.782,-0.977 5.905,-5.423 4.741,-9.93 m -19.789,-6.588 -4.638,6.797 -2.21,-0.235 -1.404,-6.562 h -3.505 l 4.768,25.893 c 0,0 0.51,2.026 -2.418,1.859 v 0.01 l 0.197,0.972 6.725,0.037 -3.261,-16.411 c 0,0 1.245,1.946 2.652,2.994 1.133,0.87 2.183,1.113 2.38,1.169 0.197,0.055 0.578,0.137 1.354,0.151 0.776,0.013 1.171,-0.137 1.322,-0.204 0.15,-0.069 0.674,-0.327 1.053,-0.904 0.231,-0.352 0.522,-0.867 0.483,-1.874 -0.039,-1.008 -0.424,-2.057 -0.424,-2.057 0,0 -0.439,-1.193 -1.24,-1.972 -0.799,-0.778 -1.213,-1.013 -1.796,-1.363 -0.583,-0.351 -1.05,-0.504 -1.424,-0.613 -0.374,-0.11 -0.183,-0.068 -0.183,-0.068 l 4.183,-5.627 c 0,0 0.187,-0.226 0.293,-0.315 0.106,-0.088 0.555,-0.593 2.466,-0.71 l 0.022,-0.956 z M 13.831,1.162 C 13.199,0.466 12.474,-0.252 11.776,-0.882 11.284,-1.326 10.789,-1.764 10.25,-2.149 9.726,-2.524 9.184,-2.874 8.579,-3.104 8.173,-3.257 7.755,-3.389 7.312,-3.388 6.8,-3.388 6.288,-3.478 5.774,-3.392 5.559,-3.356 5.349,-3.311 5.146,-3.225 4.13,-2.792 3.396,-2.059 2.935,-1.069 2.709,-0.583 2.509,-0.089 2.448,0.454 2.346,1.175 2.344,1.344 2.332,1.468 2.272,2.094 2.215,2.498 2.284,3.124 2.364,3.851 2.422,4.581 2.555,5.3 2.673,5.942 2.816,6.579 2.957,7.217 2.99,7.368 3.038,7.514 3.088,7.659 c 0.103,0.301 0.174,0.466 0.303,0.73 0.296,0.603 0.573,1.209 0.974,1.751 0.447,0.605 0.96,1.135 1.553,1.605 0.783,0.622 1.669,0.999 2.622,1.226 0.731,0.174 1.481,0.246 2.229,0.108 0.489,-0.09 0.965,-0.249 1.392,-0.508 0.436,-0.265 0.739,-0.653 0.915,-1.136 0.208,-0.567 0.25,-1.149 0.177,-1.746 C 13.2,9.248 13.146,8.885 13.044,8.455 12.962,8.098 12.755,7.78 12.563,7.507 12.226,7.025 11.766,6.66 11.353,6.249 10.908,5.806 10.404,5.434 9.909,5.049 9.373,4.632 8.82,4.239 8.256,3.862 8.005,3.693 7.729,3.558 7.458,3.421 6.961,3.171 6.487,2.876 5.968,2.67 5.759,2.587 5.751,2.574 5.779,2.359 5.855,1.783 5.895,1.199 6.125,0.651 c 0.28,-0.667 0.761,-1.141 1.403,-1.445 0.421,-0.2 0.885,-0.212 1.333,-0.116 0.772,0.164 1.481,0.482 2.152,0.907 0.531,0.336 1.016,0.726 1.494,1.128 0.212,0.18 0.413,0.374 0.606,0.574 0.288,0.3 0.564,0.61 0.866,0.94 L 27.834,32.546 -85.147,27.618 -84.245,6.964 h 9.554 V 3.252 h -9.392 l 0.574,-13.141 100.46,4.383 -3.117,6.708 z"
             style="fill:#2a3981;fill-opacity:1;fill-rule:nonzero;stroke:none"
             id="path214"
             inkscape:connector-curvature="0" /></g><g
           id="g216"
           transform="translate(110.3154,49.5518)"><path
             d="m 0,0 0.01,0.128 0.136,1.311 c 0,-0.001 0,-0.001 0,-0.002 L -0.261,0.562 Z"
             style="fill:#ffffff;fill-opacity:1;fill-rule:nonzero;stroke:none"
             id="path218"
             inkscape:connector-curvature="0" /></g></g></g></g></svg>